<?xml version="1.0" encoding="UTF-8" standalone="no"?>
<!-- Created with Inkscape (http://www.inkscape.org/) -->

<svg
   xmlns:dc="http://purl.org/dc/elements/1.1/"
   xmlns:cc="http://creativecommons.org/ns#"
   xmlns:rdf="http://www.w3.org/1999/02/22-rdf-syntax-ns#"
   xmlns:svg="http://www.w3.org/2000/svg"
   xmlns="http://www.w3.org/2000/svg"
   xmlns:sodipodi="http://sodipodi.sourceforge.net/DTD/sodipodi-0.dtd"
   xmlns:inkscape="http://www.inkscape.org/namespaces/inkscape"
   width="25.446852mm"
   height="30.684641mm"
   viewBox="0 0 90.16601 108.72511"
   id="svg2"
   version="1.1"
   inkscape:version="0.91 r13725"
   sodipodi:docname="libxmjs.svg">
  <defs
     id="defs4" />
  <sodipodi:namedview
     id="base"
     pagecolor="#ffffff"
     bordercolor="#666666"
     borderopacity="1.0"
     inkscape:pageopacity="0.0"
     inkscape:pageshadow="2"
     inkscape:zoom="3.959798"
     inkscape:cx="42.56699"
     inkscape:cy="47.822722"
     inkscape:document-units="px"
     inkscape:current-layer="layer1"
     showgrid="false"
     showguides="true"
     inkscape:guide-bbox="true"
     inkscape:snap-object-midpoints="false"
     inkscape:snap-center="true"
     fit-margin-top="0"
     fit-margin-left="0"
     fit-margin-right="0"
     fit-margin-bottom="0"
     inkscape:window-width="1918"
     inkscape:window-height="1078"
     inkscape:window-x="2048"
     inkscape:window-y="0"
     inkscape:window-maximized="1">
    <sodipodi:guide
       position="45.083006,85.365636"
       orientation="1,0"
       id="guide4217" />
  </sodipodi:namedview>
  <metadata
     id="metadata7">
    <rdf:RDF>
      <cc:Work
         rdf:about="">
        <dc:format>image/svg+xml</dc:format>
        <dc:type
           rdf:resource="http://purl.org/dc/dcmitype/StillImage" />
        <dc:title></dc:title>
      </cc:Work>
    </rdf:RDF>
  </metadata>
  <g
     inkscape:label="Layer 1"
     inkscape:groupmode="layer"
     id="layer1"
     transform="translate(-21.081986,-43.093842)">
    <g
       style="font-style:normal;font-variant:normal;font-weight:bold;font-stretch:normal;font-size:20px;line-height:125%;font-family:Helvetica;-inkscape-font-specification:'Helvetica Bold';letter-spacing:0px;word-spacing:0px;fill:#000000;fill-opacity:1;stroke:none;stroke-width:1px;stroke-linecap:butt;stroke-linejoin:miter;stroke-opacity:1"
       id="text4136"
       transform="translate(-83.605584,2.7779195)">
      <path
         d="m 104.68757,54.280766 0,-13.759766 2.88086,0 0,11.533203 7.38281,0 0,2.226563 -10.26367,0 z"
         style="font-style:normal;font-variant:normal;font-weight:bold;font-stretch:normal;font-family:Helvetica;-inkscape-font-specification:'Helvetica Bold'"
         id="path4177"
         inkscape:connector-curvature="0" />
      <path
         d="m 116.91413,54.280766 0,-13.759766 2.88086,0 0,13.759766 -2.88086,0 z"
         style="font-style:normal;font-variant:normal;font-weight:bold;font-stretch:normal;font-family:Helvetica;-inkscape-font-specification:'Helvetica Bold'"
         id="path4179"
         inkscape:connector-curvature="0" />
      <path
         d="m 134.65827,50.354984 q 0,1.875 -1.40625,2.900391 -1.40625,1.025391 -3.90625,1.025391 l -6.88476,0 0,-13.759766 6.29882,0 q 2.51954,0 3.8086,0.878906 1.29883,0.869141 1.29883,2.578125 0,1.171875 -0.6543,1.982422 -0.64453,0.800781 -1.97266,1.083984 1.66992,0.195313 2.53907,1.054688 0.8789,0.849609 0.8789,2.255859 z m -3.6914,-5.986328 q 0,-0.927734 -0.59571,-1.318359 -0.58594,-0.390625 -1.74804,-0.390625 l -3.28125,0 0,3.408203 3.30078,0 q 1.2207,0 1.76757,-0.419922 0.55665,-0.429687 0.55665,-1.279297 z m 0.80078,5.761719 q 0,-1.933594 -2.77344,-1.933594 l -3.65234,0 0,3.945313 3.75976,0 q 1.38672,0 2.02149,-0.498047 0.64453,-0.507813 0.64453,-1.513672 z"
         style="font-style:normal;font-variant:normal;font-weight:bold;font-stretch:normal;font-family:Helvetica;-inkscape-font-specification:'Helvetica Bold'"
         id="path4181"
         inkscape:connector-curvature="0" />
      <path
         d="m 145.71296,54.280766 -3.45703,-5.478516 -3.45703,5.478516 -3.04688,0 4.76563,-7.236329 -4.36524,-6.523437 3.04688,0 3.05664,4.863281 3.05664,-4.863281 3.02734,0 -4.17969,6.523437 4.58008,7.236329 -3.02734,0 z"
         style="font-style:normal;font-variant:normal;font-weight:bold;font-stretch:normal;font-family:Helvetica;-inkscape-font-specification:'Helvetica Bold'"
         id="path4183"
         inkscape:connector-curvature="0" />
      <path
         d="m 161.69929,54.280766 0,-8.339844 q 0,-0.283203 0,-0.566406 0.01,-0.283204 0.0977,-2.431641 -0.69336,2.626953 -1.02539,3.662109 l -2.48047,7.675782 -2.05078,0 -2.48047,-7.675782 -1.04492,-3.662109 q 0.11719,2.265625 0.11719,2.998047 l 0,8.339844 -2.55859,0 0,-13.759766 3.85742,0 2.46094,7.695312 0.21484,0.742188 0.46875,1.845703 0.61523,-2.207031 2.5293,-8.076172 3.83789,0 0,13.759766 -2.55859,0 z"
         style="font-style:normal;font-variant:normal;font-weight:bold;font-stretch:normal;font-family:Helvetica;-inkscape-font-specification:'Helvetica Bold'"
         id="path4185"
         inkscape:connector-curvature="0" />
      <path
         d="m 166.97272,54.280766 0,-2.978516 2.82227,0 0,2.978516 -2.82227,0 z"
         style="font-style:normal;font-variant:normal;font-weight:bold;font-stretch:normal;font-family:Helvetica;-inkscape-font-specification:'Helvetica Bold'"
         id="path4187"
         inkscape:connector-curvature="0" />
      <path
         d="m 176.27937,54.476078 q -2.13868,0 -3.29102,-0.927734 -1.14258,-0.927735 -1.52344,-2.998047 l 2.86133,-0.419922 q 0.17578,1.064453 0.6543,1.582031 0.47851,0.507813 1.31836,0.507813 0.85937,0 1.29882,-0.576172 0.44922,-0.576172 0.44922,-1.650391 l 0,-7.216797 -2.74414,0 0,-2.255859 5.61524,0 0,9.404297 q 0,2.148437 -1.22071,3.349609 -1.2207,1.201172 -3.41796,1.201172 z"
         style="font-style:normal;font-variant:normal;font-weight:bold;font-stretch:normal;font-family:Helvetica;-inkscape-font-specification:'Helvetica Bold'"
         id="path4189"
         inkscape:connector-curvature="0" />
      <path
         d="m 194.85358,50.315922 q 0,2.021484 -1.5039,3.095703 -1.49414,1.064453 -4.39453,1.064453 -2.64649,0 -4.15039,-0.9375 -1.50391,-0.9375 -1.9336,-2.841797 l 2.78321,-0.458984 q 0.2832,1.09375 1.10351,1.591797 0.82031,0.488281 2.27539,0.488281 3.01758,0 3.01758,-1.835938 0,-0.585937 -0.35156,-0.966796 -0.3418,-0.38086 -0.97657,-0.634766 -0.625,-0.253906 -2.4121,-0.615234 -1.54297,-0.361329 -2.14844,-0.576172 -0.60547,-0.22461 -1.09375,-0.517578 -0.48828,-0.302735 -0.83008,-0.722657 -0.3418,-0.419922 -0.53711,-0.986328 -0.18555,-0.566406 -0.18555,-1.298828 0,-1.865234 1.39649,-2.851562 1.40625,-0.996094 4.08203,-0.996094 2.55859,0 3.83789,0.800781 1.28906,0.800781 1.66016,2.646484 l -2.79297,0.38086 q -0.21485,-0.888672 -0.87891,-1.337891 -0.6543,-0.449219 -1.88476,-0.449219 -2.61719,0 -2.61719,1.640625 0,0.53711 0.27344,0.878907 0.2832,0.341797 0.83007,0.585937 0.54688,0.234375 2.2168,0.595703 1.98242,0.419922 2.83203,0.78125 0.85938,0.351563 1.35742,0.830078 0.49805,0.46875 0.76172,1.132813 0.26367,0.654297 0.26367,1.513672 z"
         style="font-style:normal;font-variant:normal;font-weight:bold;font-stretch:normal;font-family:Helvetica;-inkscape-font-specification:'Helvetica Bold'"
         id="path4191"
         inkscape:connector-curvature="0" />
    </g>
    <g
       style="font-style:normal;font-variant:normal;font-weight:500;font-stretch:normal;font-size:70px;line-height:125%;font-family:'A Gentle Touch';-inkscape-font-specification:'A Gentle Touch Medium';letter-spacing:0px;word-spacing:0px;fill:#000000;fill-opacity:1;stroke:none;stroke-width:1px;stroke-linecap:butt;stroke-linejoin:miter;stroke-opacity:1"
       id="text4152"
       transform="translate(-80.584814,-3.5355341)">
      <path
         d="m 109.66348,88.167793 q 0,-5.95 1.05,-10.64 1.05,-4.76 3.15,-7.98 2.1,-3.29 5.32,-4.97 3.22,-1.75 7.63,-1.75 4.69,0 7.91,1.68 3.29,1.68 5.32,4.9 2.03,3.22 2.94,7.98 0.91,4.69 0.91,10.78 0,5.95 -1.05,10.71 -1.05,4.689997 -3.15,7.979997 -2.1,3.22 -5.32,4.97 -3.22,1.68 -7.63,1.68 -4.62,0 -7.91,-1.82 -3.22,-1.89 -5.32,-5.25 -2.03,-3.36 -2.94,-7.979997 -0.91,-4.69 -0.91,-10.29 z m 28.49,0 q 0,-3.71 -0.42,-7.07 l -20.79,18.969997 q 1.19,3.99 3.57,6.37 2.38,2.38 6.23,2.38 6.16,0 8.75,-5.11 2.66,-5.109997 2.66,-15.539997 z m -22.68,0 q 0,1.75 0.07,3.36 0.14,1.61 0.28,3.15 l 20.86,-18.9 q -1.19,-3.78 -3.57,-6.02 -2.31,-2.24 -6.3,-2.24 -6.23,0 -8.82,5.18 -2.52,5.11 -2.52,15.47 z"
         style="font-style:normal;font-variant:normal;font-weight:normal;font-stretch:normal;font-size:70px;font-family:'PT Mono';-inkscape-font-specification:'PT Mono'"
         id="path4194"
         inkscape:connector-curvature="0" />
      <path
         d="m 156.67613,107.62779 10.99,0 0,-36.819997 -11.2,7.84 -2.73,-3.99 15.4,-10.99 3.92,0 0,43.959997 10.78,0 0,5.04 -27.16,0 0,-5.04 z"
         style="font-style:normal;font-variant:normal;font-weight:normal;font-stretch:normal;font-size:70px;font-family:'PT Mono';-inkscape-font-specification:'PT Mono'"
         id="path4196"
         inkscape:connector-curvature="0" />
    </g>
    <g
       style="font-style:normal;font-variant:normal;font-weight:bold;font-stretch:normal;font-size:20px;line-height:125%;font-family:Helvetica;-inkscape-font-specification:'Helvetica Bold';text-align:center;letter-spacing:0px;word-spacing:0px;text-anchor:middle;fill:#000000;fill-opacity:1;stroke:none;stroke-width:1px;stroke-linecap:butt;stroke-linejoin:miter;stroke-opacity:1"
       id="text4136-7"
       transform="translate(-77.816269,-9.0913725)">
      <path
         d="m 120.54376,131.75017 q 0,2.02148 -1.5039,3.0957 -1.49414,1.06445 -4.39454,1.06445 -2.64648,0 -4.15039,-0.9375 -1.5039,-0.9375 -1.93359,-2.84179 l 2.7832,-0.45899 q 0.28321,1.09375 1.10352,1.5918 0.82031,0.48828 2.27539,0.48828 3.01758,0 3.01758,-1.83594 0,-0.58593 -0.35156,-0.96679 -0.3418,-0.38086 -0.97657,-0.63477 -0.625,-0.25391 -2.41211,-0.61523 -1.54297,-0.36133 -2.14843,-0.57618 -0.60547,-0.2246 -1.09375,-0.51757 -0.48829,-0.30274 -0.83008,-0.72266 -0.3418,-0.41992 -0.53711,-0.98633 -0.18555,-0.5664 -0.18555,-1.29883 0,-1.86523 1.39649,-2.85156 1.40625,-0.99609 4.08203,-0.99609 2.55859,0 3.83789,0.80078 1.28906,0.80078 1.66015,2.64648 l -2.79296,0.38086 q -0.21485,-0.88867 -0.87891,-1.33789 -0.6543,-0.44922 -1.88477,-0.44922 -2.61718,0 -2.61718,1.64063 0,0.53711 0.27343,0.8789 0.28321,0.3418 0.83008,0.58594 0.54688,0.23438 2.2168,0.59571 1.98242,0.41992 2.83203,0.78125 0.85937,0.35156 1.35742,0.83007 0.49805,0.46875 0.76172,1.13282 0.26367,0.65429 0.26367,1.51367 z"
         style="font-style:normal;font-variant:normal;font-weight:bold;font-stretch:normal;font-family:Helvetica;-inkscape-font-specification:'Helvetica Bold';text-align:center;text-anchor:middle"
         id="path4199"
         inkscape:connector-curvature="0" />
      <path
         d="m 136.06134,128.77165 q 0,2.14844 -0.84961,3.7793 -0.84961,1.63086 -2.43164,2.5 -1.58203,0.85937 -3.69141,0.85937 -3.24218,0 -5.08789,-1.90429 -1.83593,-1.91407 -1.83593,-5.23438 0,-3.31054 1.83593,-5.16601 1.83594,-1.85547 5.10743,-1.85547 3.27148,0 5.10742,1.875 1.8457,1.875 1.8457,5.14648 z m -2.93945,0 q 0,-2.22656 -1.05469,-3.48633 -1.05469,-1.26953 -2.95898,-1.26953 -1.9336,0 -2.98829,1.25977 -1.05468,1.25 -1.05468,3.49609 0,2.26563 1.07422,3.57422 1.08398,1.29883 2.94921,1.29883 1.9336,0 2.97852,-1.26953 1.05469,-1.26953 1.05469,-3.60352 z"
         style="font-style:normal;font-variant:normal;font-weight:bold;font-stretch:normal;font-family:Helvetica;-inkscape-font-specification:'Helvetica Bold';text-align:center;text-anchor:middle"
         id="path4201"
         inkscape:connector-curvature="0" />
      <path
         d="m 143.95197,135.91032 q -2.8418,0 -4.35547,-1.38671 -1.50391,-1.38672 -1.50391,-3.96485 l 0,-8.60351 2.88086,0 0,8.3789 q 0,1.63086 0.77148,2.48047 0.78125,0.83984 2.28516,0.83984 1.54297,0 2.37305,-0.8789 0.83008,-0.88867 0.83008,-2.53906 l 0,-8.28125 2.88085,0 0,8.45703 q 0,2.61718 -1.62109,4.0625 -1.61133,1.43554 -4.54101,1.43554 z"
         style="font-style:normal;font-variant:normal;font-weight:bold;font-stretch:normal;font-family:Helvetica;-inkscape-font-specification:'Helvetica Bold';text-align:center;text-anchor:middle"
         id="path4203"
         inkscape:connector-curvature="0" />
      <path
         d="m 161.06134,135.71501 -5.99609,-10.5957 q 0.17578,1.54297 0.17578,2.48047 l 0,8.11523 -2.5586,0 0,-13.75976 3.29102,0 6.08398,10.68359 q -0.17578,-1.47461 -0.17578,-2.68555 l 0,-7.99804 2.5586,0 0,13.75976 -3.37891,0 z"
         style="font-style:normal;font-variant:normal;font-weight:bold;font-stretch:normal;font-family:Helvetica;-inkscape-font-specification:'Helvetica Bold';text-align:center;text-anchor:middle"
         id="path4205"
         inkscape:connector-curvature="0" />
      <path
         d="m 179.40118,128.73259 q 0,2.12891 -0.83984,3.7207 -0.83008,1.58203 -2.36328,2.42188 -1.52344,0.83984 -3.49609,0.83984 l -5.56641,0 0,-13.75976 4.98047,0 q 3.47656,0 5.38086,1.75781 1.90429,1.74805 1.90429,5.01953 z m -2.90039,0 q 0,-2.2168 -1.15234,-3.37891 -1.15234,-1.17187 -3.29102,-1.17187 l -2.04101,0 0,9.30664 2.4414,0 q 1.85547,0 2.94922,-1.2793 1.09375,-1.27929 1.09375,-3.47656 z"
         style="font-style:normal;font-variant:normal;font-weight:bold;font-stretch:normal;font-family:Helvetica;-inkscape-font-specification:'Helvetica Bold';text-align:center;text-anchor:middle"
         id="path4207"
         inkscape:connector-curvature="0" />
      <path
         d="m 131.95978,153.77165 q 0,2.14844 -0.84961,3.7793 -0.84961,1.63086 -2.43164,2.5 -1.58203,0.85937 -3.69141,0.85937 -3.24219,0 -5.08789,-1.90429 -1.83594,-1.91407 -1.83594,-5.23438 0,-3.31054 1.83594,-5.16601 1.83594,-1.85547 5.10742,-1.85547 3.27149,0 5.10742,1.875 1.84571,1.875 1.84571,5.14648 z m -2.93946,0 q 0,-2.22656 -1.05468,-3.48633 -1.05469,-1.26953 -2.95899,-1.26953 -1.93359,0 -2.98828,1.25977 -1.05469,1.25 -1.05469,3.49609 0,2.26563 1.07422,3.57422 1.08399,1.29883 2.94922,1.29883 1.9336,0 2.97852,-1.26953 1.05468,-1.26953 1.05468,-3.60352 z"
         style="font-style:normal;font-variant:normal;font-weight:bold;font-stretch:normal;font-family:Helvetica;-inkscape-font-specification:'Helvetica Bold';text-align:center;text-anchor:middle"
         id="path4209"
         inkscape:connector-curvature="0" />
      <path
         d="m 142.50665,160.71501 -5.99609,-10.5957 q 0.17578,1.54297 0.17578,2.48047 l 0,8.11523 -2.55859,0 0,-13.75976 3.29101,0 6.08399,10.68359 q -0.17578,-1.47461 -0.17578,-2.68555 l 0,-7.99804 2.55859,0 0,13.75976 -3.37891,0 z"
         style="font-style:normal;font-variant:normal;font-weight:bold;font-stretch:normal;font-family:Helvetica;-inkscape-font-specification:'Helvetica Bold';text-align:center;text-anchor:middle"
         id="path4211"
         inkscape:connector-curvature="0" />
      <path
         d="m 148.58087,160.71501 0,-13.75976 2.88086,0 0,11.5332 7.38281,0 0,2.22656 -10.26367,0 z"
         style="font-style:normal;font-variant:normal;font-weight:bold;font-stretch:normal;font-family:Helvetica;-inkscape-font-specification:'Helvetica Bold';text-align:center;text-anchor:middle"
         id="path4213"
         inkscape:connector-curvature="0" />
      <path
         d="m 165.74884,155.07048 0,5.64453 -2.87109,0 0,-5.64453 -4.90235,-8.11523 3.01758,0 3.30078,5.82031 3.33985,-5.82031 3.01757,0 -4.90234,8.11523 z"
         style="font-style:normal;font-variant:normal;font-weight:bold;font-stretch:normal;font-family:Helvetica;-inkscape-font-specification:'Helvetica Bold';text-align:center;text-anchor:middle"
         id="path4215"
         inkscape:connector-curvature="0" />
    </g>
  </g>
</svg>
